<svg width="35" height="30" viewBox="0 0 35 30" fill="none" xmlns="http://www.w3.org/2000/svg">
    <g id="logoSvg">
        <path fill-rule="evenodd" clip-rule="evenodd" d="M12 0.5H8V4.5H4H0V8.5V12.5V16.5H4H8V12.5H12H16V8.5V4.5V0.5H12ZM4 12.5H8V8.5H12V4.5H8V8.5H4V12.5Z" fill="white"/>
    </g>
    
    <g id="telegramSvg">
        <path d="M32.1586 0.340967L1.1503 12.5808C-0.0975299 13.1508 -0.519581 14.2923 0.8487 14.9118L8.80368 17.4995L28.0378 5.33177C29.088 4.5679 30.1632 4.77159 29.238 5.6119L12.7185 20.9224L12.1996 27.4017C12.6802 28.4021 13.5603 28.4068 14.1216 27.9095L18.692 23.4829L26.5195 29.4827C28.3375 30.5844 29.3267 29.8734 29.7179 27.8541L34.852 2.96937C35.3851 0.483814 34.476 -0.611346 32.1586 0.340967Z" fill="white"/>
    </g>
    
    <g id="linkedSvg">
        <path d="M6.33333 2.5C4.76853 2.5 3.5 3.76853 3.5 5.33333C3.5 6.89814 4.76853 8.16667 6.33333 8.16667C7.89814 8.16667 9.16667 6.89814 9.16667 5.33333C9.16667 3.76853 7.89814 2.5 6.33333 2.5Z" fill="white"/>
        <path d="M3.66667 10.5C3.57462 10.5 3.5 10.5746 3.5 10.6667V28C3.5 28.092 3.57462 28.1667 3.66667 28.1667H9C9.09205 28.1667 9.16667 28.092 9.16667 28V10.6667C9.16667 10.5746 9.09205 10.5 9 10.5H3.66667Z" fill="white"/>
        <path d="M12.3333 10.5C12.2413 10.5 12.1667 10.5746 12.1667 10.6667V28C12.1667 28.092 12.2413 28.1667 12.3333 28.1667H17.6667C17.7587 28.1667 17.8333 28.092 17.8333 28V18.6667C17.8333 18.0036 18.0967 17.3677 18.5656 16.8989C19.0344 16.4301 19.6703 16.1667 20.3333 16.1667C20.9964 16.1667 21.6323 16.4301 22.1011 16.8989C22.5699 17.3677 22.8333 18.0036 22.8333 18.6667V28C22.8333 28.092 22.908 28.1667 23 28.1667H28.3333C28.4254 28.1667 28.5 28.092 28.5 28V16.507C28.5 13.2713 25.6859 10.74 22.4665 11.0327C21.4736 11.1229 20.4919 11.3697 19.5753 11.7626L17.8333 12.5091V10.6667C17.8333 10.5746 17.7587 10.5 17.6667 10.5H12.3333Z" fill="white"/>
        
    </g>

    <g id="gitSvg">
        <path fill-rule="evenodd" clip-rule="evenodd" d="M16.0001 0C7.52841 0 0.666748 6.86167 0.666748 15.3333C0.666748 22.1183 5.05591 27.8492 11.1509 29.8808C11.9176 30.015 12.2051 29.555 12.2051 29.1525C12.2051 28.7883 12.1859 27.5808 12.1859 26.2967C8.33342 27.0058 7.33675 25.3575 7.03008 24.495C6.85758 24.0542 6.11008 22.6933 5.45842 22.3292C4.92175 22.0417 4.15508 21.3325 5.43925 21.3133C6.64675 21.2942 7.50925 22.425 7.79675 22.885C9.17675 25.2042 11.3809 24.5525 12.2626 24.15C12.3967 23.1533 12.7992 22.4825 13.2401 22.0992C9.82842 21.7158 6.26342 20.3933 6.26342 14.5283C6.26342 12.8608 6.85758 11.4808 7.83508 10.4075C7.68175 10.0242 7.14508 8.4525 7.98841 6.34417C7.98841 6.34417 9.27258 5.94167 12.2051 7.91583C13.4317 7.57083 14.7351 7.39833 16.0384 7.39833C17.3417 7.39833 18.6451 7.57083 19.8717 7.91583C22.8042 5.9225 24.0884 6.34417 24.0884 6.34417C24.9317 8.4525 24.3951 10.0242 24.2417 10.4075C25.2192 11.4808 25.8134 12.8417 25.8134 14.5283C25.8134 20.4125 22.2292 21.7158 18.8176 22.0992C19.3734 22.5783 19.8526 23.4983 19.8526 24.9358C19.8526 26.9867 19.8334 28.635 19.8334 29.1525C19.8334 29.555 20.1209 30.0342 20.8876 29.8808C26.9443 27.8492 31.3334 22.0992 31.3334 15.3333C31.3334 6.86167 24.4717 0 16.0001 0Z" fill="white"/>
    </g>

    <g id="gitSqSvg">
        <path d="M33.7891 69.7917C33.9627 69.5312 33.8976 69.2491 33.5938 68.9453C33.2031 68.6415 32.8993 68.5981 32.6823 68.8151C32.5087 69.0755 32.5738 69.3576 32.8776 69.6615C33.2682 69.9653 33.572 70.0087 33.7891 69.7917ZM31.9661 67.1224C31.7491 66.8186 31.4887 66.7318 31.1849 66.862C30.9245 67.0356 30.9245 67.296 31.1849 67.6432C31.4887 67.9904 31.7491 68.099 31.9661 67.9688C32.2266 67.7951 32.2266 67.513 31.9661 67.1224ZM29.2969 64.5182C29.3837 64.3446 29.2752 64.171 28.9714 63.9974C28.6675 63.9106 28.4939 63.954 28.4505 64.1276C28.3203 64.3446 28.4071 64.5182 28.7109 64.6484C29.0582 64.7352 29.2535 64.6918 29.2969 64.5182ZM30.6641 66.0156C30.7509 65.9722 30.7834 65.8746 30.7617 65.7227C30.74 65.5707 30.6641 65.4514 30.5339 65.3646C30.2734 65.0608 30.0564 64.9957 29.8828 65.1693C29.7092 65.3429 29.7309 65.5816 29.9479 65.8854C30.2083 66.1458 30.447 66.1892 30.6641 66.0156ZM36.263 70.8984C36.3498 70.5946 36.1545 70.3559 35.6771 70.1823C35.2865 70.0521 35.0043 70.1389 34.8307 70.4427C34.7439 70.7465 34.9392 70.9852 35.4167 71.1589C35.8073 71.2891 36.0894 71.2023 36.263 70.8984ZM38.9974 71.0938C38.9974 70.7465 38.737 70.5729 38.2161 70.5729C37.7821 70.5729 37.5651 70.7465 37.5651 71.0938C37.5651 71.441 37.8038 71.6146 38.2812 71.6146C38.7587 71.6146 38.9974 71.441 38.9974 71.0938ZM41.5365 70.638C41.4496 70.3342 41.1675 70.2257 40.6901 70.3125C40.2127 70.3993 40.0174 70.5946 40.1042 70.8984C40.191 71.2457 40.4514 71.3759 40.8854 71.2891C41.3194 71.2023 41.5365 70.9852 41.5365 70.638ZM83.3333 50C83.3333 40.7986 80.0781 32.9427 73.5677 26.4323C67.0573 19.9219 59.2014 16.6667 50 16.6667C40.7986 16.6667 32.9427 19.9219 26.4323 26.4323C19.9219 32.9427 16.6667 40.7986 16.6667 50C16.6667 57.2483 18.7934 63.7695 23.0469 69.5638C27.3003 75.3581 32.7691 79.3837 39.4531 81.6406C40.2344 81.7708 40.8095 81.6623 41.1784 81.3151C41.5473 80.9679 41.7318 80.5339 41.7318 80.013C41.7318 77.7561 41.7101 75.6944 41.6667 73.8281C41.4062 73.8715 41.0699 73.9258 40.6576 73.9909C40.2452 74.056 39.4748 74.0994 38.3464 74.1211C37.2179 74.1428 36.1762 74.056 35.2214 73.8607C34.2665 73.6654 33.3225 73.2313 32.3893 72.5586C31.4562 71.8858 30.816 70.9852 30.4687 69.8568C29.4705 67.296 28.2335 65.6901 26.7578 65.0391C26.671 64.9957 26.5733 64.9197 26.4648 64.8112L25.944 64.2904L25.4883 63.6719L25.7487 63.1836L27.0182 62.9557C27.2786 62.9557 27.6042 62.9991 27.9948 63.0859C28.3854 63.1727 29.0365 63.5091 29.9479 64.095C30.8594 64.681 31.5755 65.4514 32.0964 66.4062C32.7908 67.6215 33.6046 68.533 34.5378 69.1406C35.4709 69.7483 36.4149 70.0521 37.3698 70.0521C38.3246 70.0521 39.1493 69.9761 39.8438 69.8242C40.5382 69.6723 41.1892 69.4661 41.7969 69.2057C42.1007 67.1658 42.8168 65.6684 43.9453 64.7135C41.8186 64.4531 39.9523 64.0516 38.3464 63.5091C36.7405 62.9666 35.1562 62.1202 33.5938 60.9701C32.0312 59.8199 30.8268 58.1706 29.9805 56.0221C29.1341 53.8737 28.7109 51.2804 28.7109 48.2422C28.7109 44.8134 29.8611 41.8403 32.1615 39.3229C31.1198 36.6319 31.2283 33.6806 32.487 30.4687C33.3116 30.2083 34.4944 30.3711 36.0352 30.957C37.576 31.543 38.8889 32.1832 39.974 32.8776L41.6667 33.9193C44.184 33.1814 46.9618 32.8125 50 32.8125C53.0382 32.8125 55.816 33.1814 58.3333 33.9193C58.8108 33.6155 59.4293 33.2248 60.1888 32.7474C60.9483 32.27 62.1528 31.7057 63.8021 31.0547C65.4514 30.4036 66.6884 30.2083 67.513 30.4687C68.7717 33.6806 68.8802 36.6319 67.8385 39.3229C70.1389 41.8403 71.2891 44.8134 71.2891 48.2422C71.2891 50.7161 70.9852 52.8971 70.3776 54.7852C69.77 56.6732 68.9996 58.1923 68.0664 59.3424C67.1332 60.4926 65.9722 61.4583 64.5833 62.2396C63.1944 63.0208 61.8381 63.5851 60.5143 63.9323C59.1905 64.2795 57.704 64.5399 56.0547 64.7135C57.5738 66.059 58.3333 68.1207 58.3333 70.8984C58.3333 72.6345 58.3225 74.566 58.3008 76.6927C58.2791 78.8194 58.2682 79.9262 58.2682 80.013C58.2682 80.5339 58.4527 80.9679 58.8216 81.3151C59.1905 81.6623 59.7656 81.7708 60.5469 81.6406C67.2309 79.3837 72.6997 75.3581 76.9531 69.5638C81.2066 63.7695 83.3333 57.2483 83.3333 50ZM100 18.75V81.25C100 86.4149 98.1662 90.8312 94.4987 94.4987C90.8312 98.1662 86.4149 100 81.25 100H18.75C13.5851 100 9.16884 98.1662 5.5013 94.4987C1.83377 90.8312 0 86.4149 0 81.25V18.75C0 13.5851 1.83377 9.16884 5.5013 5.5013C9.16884 1.83377 13.5851 0 18.75 0H81.25C86.4149 0 90.8312 1.83377 94.4987 5.5013C98.1662 9.16884 100 13.5851 100 18.75Z" fill="white"/>
    </g>

    <g id="figmaSq">
        <path d="M76.5625 0H23.4375C10.4933 0 0 10.4933 0 23.4375V76.5625C0 89.5067 10.4933 100 23.4375 100H76.5625C89.5067 100 100 89.5067 100 76.5625V23.4375C100 10.4933 89.5067 0 76.5625 0Z" fill="#F4F2ED"/>
        <mask id="mask0_4533_1213" style="mask-type:luminance" maskUnits="userSpaceOnUse" x="23" y="10" width="53" height="80">
        <path d="M23.8281 10.9375H75.9219V89.0625H23.8281V10.9375Z" fill="white"/>
        </mask>
        <g mask="url(#mask0_4533_1213)">
        <path d="M36.8543 89.0625C44.0418 89.0625 49.875 83.2293 49.875 76.0418V63.0207H36.8543C29.6668 63.0207 23.8333 68.8543 23.8333 76.0418C23.8333 83.2293 29.6668 89.0625 36.8543 89.0625Z" fill="#0ACF83"/>
        <path d="M23.8333 50C23.8333 42.8125 29.6668 36.9793 36.8543 36.9793H49.875V63.0207H36.8543C29.6668 63.0207 23.8333 57.1875 23.8333 50Z" fill="#A259FF"/>
        <path d="M23.8333 23.9582C23.8333 16.7707 29.6668 10.9375 36.8543 10.9375H49.875V36.9793H36.8543C29.6668 36.9793 23.8333 31.1457 23.8333 23.9582Z" fill="#F24E1E"/>
        <path d="M49.875 10.9375H62.8957C70.0832 10.9375 75.9168 16.7707 75.9168 23.9582C75.9168 31.1457 70.0832 36.9793 62.8957 36.9793H49.875V10.9375Z" fill="#FF7262"/>
        <path d="M75.9168 50C75.9168 57.1875 70.0832 63.0207 62.8957 63.0207C55.7082 63.0207 49.875 57.1875 49.875 50C49.875 42.8125 55.7082 36.9793 62.8957 36.9793C70.0832 36.9793 75.9168 42.8125 75.9168 50Z" fill="#1ABCFE"/>
        </g>
    </g>

    <g id="gitSkillSq">
    <g clip-path="url(#clip0_4533_1197)">
        <path d="M76.5625 0H23.4375C10.4933 0 0 10.4933 0 23.4375V76.5625C0 89.5067 10.4933 100 23.4375 100H76.5625C89.5067 100 100 89.5067 100 76.5625V23.4375C100 10.4933 89.5067 0 76.5625 0Z" fill="#F03C2E"/>
        <mask id="mask0_4533_1197" style="mask-type:luminance" maskUnits="userSpaceOnUse" x="10" y="10" width="80" height="80">
        <path d="M10.9375 10.9375H89.0625V89.0625H10.9375V10.9375Z" fill="white"/>
        </mask>
        <g mask="url(#mask0_4533_1197)">
        <path d="M87.5875 46.5211L53.4786 12.4121C52.7753 11.7081 51.8789 11.2286 50.903 11.0343C49.927 10.8401 48.9153 10.9399 47.9961 11.3211C47.3858 11.5741 46.8314 11.9448 46.3645 12.4121L39.2844 19.4922L48.2688 28.4766C50.3586 27.7442 52.7512 28.2446 54.416 29.9098C55.2086 30.7038 55.7619 31.7048 56.0127 32.7982C56.2635 33.8917 56.2017 35.0337 55.8344 36.0938L64.4942 44.7535C66.5891 44.0309 69.0059 44.4969 70.6782 46.1743C71.5158 47.0116 72.0862 48.0786 72.3171 49.2403C72.5481 50.4019 72.4291 51.606 71.9754 52.7C71.3671 54.1668 70.2013 55.332 68.7342 55.9395C67.267 56.5469 65.6187 56.5469 64.1516 55.9395C63.425 55.6383 62.7649 55.1973 62.209 54.641C60.4512 52.8832 60.0168 50.2953 60.9055 48.1297L52.8293 40.0536V61.3063C53.4156 61.5963 53.9513 61.9788 54.416 62.4391C55.5388 63.5619 56.1696 65.0847 56.1696 66.6725C56.1696 68.2603 55.5388 69.7831 54.416 70.9059C53.2933 72.0287 51.7705 72.6594 50.1827 72.6594C48.5948 72.6594 47.072 72.0287 45.9493 70.9059C45.1112 70.069 44.5405 69.0022 44.3092 67.8406C44.0779 66.6791 44.1965 65.475 44.65 64.3809C44.9511 63.6544 45.3926 62.9946 45.9493 62.4391C46.5278 61.8629 47.17 61.4258 47.9098 61.1328V39.6825C47.1757 39.3823 46.5091 38.9383 45.9493 38.3766C45.1087 37.5369 44.5372 36.4659 44.3076 35.3001C44.078 34.1343 44.2008 32.9266 44.6602 31.8309L35.7981 22.9739L12.4094 46.3379C11.7053 47.0415 11.2257 47.9382 11.0314 48.9145C10.8371 49.8907 10.9367 50.9027 11.3176 51.8223C11.5708 52.4329 11.9418 52.9876 12.4094 53.4547L46.5207 87.561C46.9877 88.0282 47.5422 88.3989 48.1524 88.652C49.3853 89.1623 50.7703 89.1623 52.0032 88.652C52.6134 88.3989 53.1678 88.0282 53.6348 87.561L87.5875 53.6621C88.055 53.195 88.4259 52.6403 88.679 52.0298C88.932 51.4192 89.0624 50.7648 89.0625 50.1039C89.0626 49.443 88.9323 48.7884 88.6792 48.1778C88.4261 47.5672 88.0552 47.0125 87.5875 46.5453" fill="white"/>
        </g>
        </g>
        <defs>
        <clipPath id="clip0_4533_1197">
        <rect width="100" height="100" fill="white"/>
        </clipPath>
        </defs>
    </g>
    <g id="timeLine">
        <rect x="2" y="9" width="880" height="8" rx="4" fill="url(#paint0_linear_4533_1165)"/>
        <circle cx="12.5" cy="12.5" r="12.5" fill="white"/>
        <circle cx="300.5" cy="12.5" r="12.5" fill="white"/>
        <circle cx="588.5" cy="12.5" r="12.5" fill="white"/>
        <circle cx="876.5" cy="12.5" r="12.5" fill="white"/>
        <defs>
        <linearGradient id="paint0_linear_4533_1165" x1="882" y1="13" x2="2" y2="13.0007" gradientUnits="userSpaceOnUse">
        <stop stop-color="#13ADC7"/>
        <stop offset="0.666667" stop-color="#6978D1"/>
        <stop offset="1" stop-color="#945DD6"/>
        </linearGradient>
        </defs>
    </g>
    <g id="indicatorHtml">
        <rect width="900" height="18" rx="9" fill="#162950"/>
        <rect width="674.1" height="18" rx="9" fill="url(#paint0_linear_4533_996)"/>
        <defs>
        <linearGradient id="paint0_linear_4533_996" x1="674.1" y1="9" x2="2.36599e-06" y2="9.00018" gradientUnits="userSpaceOnUse">
        <stop stop-color="#13ADC7"/>
        <stop offset="0.666667" stop-color="#6978D1"/>
        <stop offset="1" stop-color="#945DD6"/>
        </linearGradient>
        </defs>
    </g>
    <g id="indicatorCss">
        <rect width="900" height="18" rx="9" fill="#162950"/>   
        <rect width="607.5" height="18" rx="9" fill="url(#paint0_linear_4533_1126)"/>
        <defs>
        <linearGradient id="paint0_linear_4533_1126" x1="607.5" y1="9" x2="2.13222e-06" y2="9.00015" gradientUnits="userSpaceOnUse">
        <stop stop-color="#13ADC7"/>
        <stop offset="0.666667" stop-color="#6978D1"/>
        <stop offset="1" stop-color="#945DD6"/>
        </linearGradient>
        </defs>
    </g>
    <g id="indicatorReact">
        <rect width="900" height="18" rx="9" fill="#162950"/>
        <rect width="495" height="18" rx="9" fill="url(#paint0_linear_4533_1138)"/>
        <defs>
        <linearGradient id="paint0_linear_4533_1138" x1="495" y1="9" x2="1.73736e-06" y2="9.0001" gradientUnits="userSpaceOnUse">
        <stop stop-color="#13ADC7"/>
        <stop offset="0.666667" stop-color="#6978D1"/>
        <stop offset="1" stop-color="#945DD6"/>
        </linearGradient>
        </defs>
    </g>
    <g id="ellipse">
        <circle cx="12.5" cy="12.5" r="12.5" fill="white"/>
    </g>
    <g id="newTimeLine">
        <rect width="880" height="10" rx="4" fill="url(#paint0_linear_4533_1233)"/>
        <defs>
        <linearGradient id="paint0_linear_4533_1233" x1="880" y1="4" x2="3.08913e-06" y2="4.00068" gradientUnits="userSpaceOnUse">
        <stop stop-color="#13ADC7"/>
        <stop offset="0.666667" stop-color="#6978D1"/>
        <stop offset="1" stop-color="#945DD6"/>
        </linearGradient>
        </defs>
    </g>
</svg>